# xmcd
# 
# Track frame offsets:
#     150
#     19080
#     43380
#     76703
#     103917
#     122963
#     138349
#     155566
#     179339
#     200419
#     222942
# 
# Disc length: 3228
# 
# Revision: 37
# Processed by: cddbd v1.5.2PL0 Copyright (c) Steve Scherf et al.
# Submitted via: fre:ac v1.0.31
# 
DISCID=9c0c9a0b
DTITLE=U2 - No Line on the Horizon
DYEAR=2009
DGENRE=Rock
TTITLE0=No Line on the Horizon
TTITLE1=Magnificent
TTITLE2=Moment of Surrender
TTITLE3=Unknown Caller
TTITLE4=I'll Go Crazy If I Don't Go Crazy Tonight
TTITLE5=Get on Your Boots
TTITLE6=Stand Up Comedy
TTITLE7=Fez-being Born
TTITLE8=White as Snow
TTITLE9=Breathe
TTITLE10=Cedars of Lebanon
EXTD=YEAR: 2009
EXTT0=
EXTT1=
EXTT2=
EXTT3=
EXTT4=
EXTT5=
EXTT6=
EXTT7=
EXTT8=
EXTT9=
EXTT10=
PLAYORDER=
